<svg xmlns="http://www.w3.org/2000/svg" viewBox="0 0 58 47">
  <path fill="#fdd2b9" fill-rule="evenodd"
    d="M23 4h-1c-3 0-5 2-5 4l1 1c2 0 4 1 5 4l4 6a358 358 0 0 0 2 2l2-2 3-6c2-3 4-4 6-4l1-1c0-2-2-4-5-4a1 1 0 0 1-2-1 6 6 0 0 0-5-3 6 6 0 0 0-5 3l-1 1Zm-2 11c-2-4-5-5-8-5-4 0-6 2-6 3l1 1c3 0 5 1 6 3a3094 3094 0 0 0 9 14 1550 1550 0 0 1 4-7l-6-9Zm-1 31a5 5 0 0 0 5 0l2-1 17-28c1-2 3-3 6-3l1-1c0-1-2-3-6-3-3 0-6 1-8 5a4245 4245 0 0 0-15 21L12 21c-2-4-5-5-7-5-3 0-5 2-5 3h1c2 0 2 1 5 5a14894 14894 0 0 1 14 22Zm32-22c3-4 3-5 5-5h1c0-1-2-3-5-3-2 0-5 1-7 5L31 44v1a5 5 0 0 0 7 1l1-1 13-21Z"
    clip-rule="evenodd" />
</svg>